{
  "asset": {
    "version": "2.0",
    "generator": "fun-with-games/scripts/generate-assets"
  },
  "scene": 0,
  "scenes": [
    {
      "nodes": [
        0
      ]
    }
  ],
  "nodes": [
    {
      "mesh": 0,
      "name": "crate"
    }
  ],
  "meshes": [
    {
      "name": "crate",
      "primitives": [
        {
          "attributes": {
            "POSITION": 0,
            "NORMAL": 1
          },
          "indices": 2,
          "material": 0
        }
      ]
    }
  ],
  "materials": [
    {
      "name": "crate-material",
      "pbrMetallicRoughness": {
        "baseColorFactor": [
          0.55,
          0.42,
          0.28,
          1
        ],
        "metallicFactor": 0.05,
        "roughnessFactor": 0.75
      }
    }
  ],
  "accessors": [
    {
      "bufferView": 0,
      "componentType": 5126,
      "count": 72,
      "type": "VEC3",
      "min": [
        -0.5299999713897705,
        -0.5400000214576721,
        -0.5299999713897705
      ],
      "max": [
        0.5299999713897705,
        0.5400000214576721,
        0.5299999713897705
      ]
    },
    {
      "bufferView": 1,
      "componentType": 5126,
      "count": 72,
      "type": "VEC3"
    },
    {
      "bufferView": 2,
      "componentType": 5123,
      "count": 108,
      "type": "SCALAR"
    }
  ],
  "bufferViews": [
    {
      "buffer": 0,
      "byteOffset": 0,
      "byteLength": 864,
      "target": 34962
    },
    {
      "buffer": 0,
      "byteOffset": 864,
      "byteLength": 864,
      "target": 34962
    },
    {
      "buffer": 0,
      "byteOffset": 1728,
      "byteLength": 216,
      "target": 34963
    }
  ],
  "buffers": [
    {
      "byteLength": 1944,
      "uri": "data:application/octet-stream;base64,"
    }
  ]
}
