{
  "asset": {
    "version": "2.0",
    "generator": "fun-with-games/scripts/generate-assets"
  },
  "scene": 0,
  "scenes": [
    {
      "nodes": [
        0
      ]
    }
  ],
  "nodes": [
    {
      "mesh": 0,
      "name": "player"
    }
  ],
  "meshes": [
    {
      "name": "player",
      "primitives": [
        {
          "attributes": {
            "POSITION": 0,
            "NORMAL": 1
          },
          "indices": 2,
          "material": 0
        }
      ]
    }
  ],
  "materials": [
    {
      "name": "player-material",
      "pbrMetallicRoughness": {
        "baseColorFactor": [
          0.72,
          0.76,
          0.86,
          1
        ],
        "metallicFactor": 0.05,
        "roughnessFactor": 0.75
      }
    }
  ],
  "accessors": [
    {
      "bufferView": 0,
      "componentType": 5126,
      "count": 168,
      "type": "VEC3",
      "min": [
        -0.47999998927116394,
        -0.8500000238418579,
        -0.20000000298023224
      ],
      "max": [
        0.47999998927116394,
        0.8500000238418579,
        0.23000000417232513
      ]
    },
    {
      "bufferView": 1,
      "componentType": 5126,
      "count": 168,
      "type": "VEC3"
    },
    {
      "bufferView": 2,
      "componentType": 5123,
      "count": 252,
      "type": "SCALAR"
    }
  ],
  "bufferViews": [
    {
      "buffer": 0,
      "byteOffset": 0,
      "byteLength": 2016,
      "target": 34962
    },
    {
      "buffer": 0,
      "byteOffset": 2016,
      "byteLength": 2016,
      "target": 34962
    },
    {
      "buffer": 0,
      "byteOffset": 4032,
      "byteLength": 504,
      "target": 34963
    }
  ],
  "buffers": [
    {
      "byteLength": 4536,
      "uri": "data:application/octet-stream;base64,"
    }
  ]
}
