{
  "asset": {
    "version": "2.0",
    "generator": "fun-with-games/scripts/generate-assets"
  },
  "scene": 0,
  "scenes": [
    {
      "nodes": [
        0
      ]
    }
  ],
  "nodes": [
    {
      "mesh": 0,
      "name": "shard"
    }
  ],
  "meshes": [
    {
      "name": "shard",
      "primitives": [
        {
          "attributes": {
            "POSITION": 0,
            "NORMAL": 1
          },
          "indices": 2,
          "material": 0
        }
      ]
    }
  ],
  "materials": [
    {
      "name": "shard-material",
      "pbrMetallicRoughness": {
        "baseColorFactor": [
          0.96,
          0.77,
          0.09,
          1
        ],
        "metallicFactor": 0.35,
        "roughnessFactor": 0.3
      }
    }
  ],
  "accessors": [
    {
      "bufferView": 0,
      "componentType": 5126,
      "count": 72,
      "type": "VEC3",
      "min": [
        -0.15000000596046448,
        -0.25,
        -0.15000000596046448
      ],
      "max": [
        0.15000000596046448,
        0.44999998807907104,
        0.15000000596046448
      ]
    },
    {
      "bufferView": 1,
      "componentType": 5126,
      "count": 72,
      "type": "VEC3"
    },
    {
      "bufferView": 2,
      "componentType": 5123,
      "count": 108,
      "type": "SCALAR"
    }
  ],
  "bufferViews": [
    {
      "buffer": 0,
      "byteOffset": 0,
      "byteLength": 864,
      "target": 34962
    },
    {
      "buffer": 0,
      "byteOffset": 864,
      "byteLength": 864,
      "target": 34962
    },
    {
      "buffer": 0,
      "byteOffset": 1728,
      "byteLength": 216,
      "target": 34963
    }
  ],
  "buffers": [
    {
      "byteLength": 1944,
      "uri": "data:application/octet-stream;base64,"
    }
  ]
}
